<?xml version="1.0" encoding="UTF-8" standalone="no"?>
<!-- Created with Inkscape (http://www.inkscape.org/) -->

<svg
   width="210mm"
   height="297mm"
   viewBox="0 0 210 297"
   version="1.1"
   id="svg3381"
   inkscape:version="1.1 (c68e22c387, 2021-05-23)"
   sodipodi:docname="Logo-Vetro.svg"
   xmlns:inkscape="http://www.inkscape.org/namespaces/inkscape"
   xmlns:sodipodi="http://sodipodi.sourceforge.net/DTD/sodipodi-0.dtd"
   xmlns="http://www.w3.org/2000/svg"
   xmlns:svg="http://www.w3.org/2000/svg">
  <style
     id="style114713">
#text98134 { 
    -inkscape-font-specification:'Allice, Normal';
    font-family:Allice;
}
</style>
  <sodipodi:namedview
     id="namedview3383"
     pagecolor="#ffffff"
     bordercolor="#111111"
     borderopacity="1"
     inkscape:pageshadow="0"
     inkscape:pageopacity="0"
     inkscape:pagecheckerboard="1"
     inkscape:document-units="mm"
     showgrid="false"
     showguides="false"
     inkscape:guide-bbox="true"
     inkscape:zoom="0.22627417"
     inkscape:cx="-2032.932"
     inkscape:cy="810.96309"
     inkscape:window-width="1440"
     inkscape:window-height="877"
     inkscape:window-x="-8"
     inkscape:window-y="760"
     inkscape:window-maximized="1"
     inkscape:current-layer="g33427"
     inkscape:lockguides="false"
     inkscape:snap-midpoints="false"
     inkscape:snap-smooth-nodes="false"
     inkscape:snap-intersection-paths="true"
     inkscape:snap-object-midpoints="false">
    <inkscape:grid
       type="xygrid"
       id="grid357" />
    <sodipodi:guide
       position="-3065.4102,799.70717"
       orientation="0,-1"
       id="guide60121"
       inkscape:locked="false" />
    <sodipodi:guide
       position="-2870.519,810.78098"
       orientation="0,-1"
       id="guide60123"
       inkscape:locked="false" />
    <sodipodi:guide
       position="-2899.9656,956.46603"
       orientation="1,0"
       id="guide60308" />
    <sodipodi:guide
       position="-2899.9655,805.52921"
       orientation="0.70710678,-0.70710678"
       id="guide60310" />
    <sodipodi:guide
       position="-2899.9656,805.52911"
       orientation="0.70711734,0.70709623"
       id="guide60312" />
    <sodipodi:guide
       position="-2899.9657,805.52919"
       orientation="0.82955704,0.55842199"
       id="guide60343" />
    <sodipodi:guide
       position="-2899.9657,805.52919"
       orientation="0.99167489,0.12876692"
       id="guide60374" />
    <sodipodi:guide
       position="-2899.9656,805.52917"
       orientation="-0.918609,-0.3951677"
       id="guide60405" />
    <sodipodi:guide
       position="-2899.9656,805.52917"
       orientation="0.91706985,-0.39872658"
       id="guide60639" />
    <sodipodi:guide
       position="-2960.1583,882.78752"
       orientation="1,0"
       id="guide60732" />
    <sodipodi:guide
       position="-2839.5083,884.37502"
       orientation="1,0"
       id="guide60734" />
    <sodipodi:guide
       position="-2923.848,810.78098"
       orientation="1,0"
       id="guide61743" />
    <sodipodi:guide
       position="-2899.9656,805.52917"
       orientation="-0.82957007,0.55840264"
       id="guide64709" />
    <sodipodi:guide
       position="-2958.0665,731.44584"
       orientation="0,-1"
       id="guide68694" />
    <sodipodi:guide
       position="-2899.9655,930.57062"
       orientation="0,-1"
       id="guide516" />
    <sodipodi:guide
       position="-3065.4102,812.72548"
       orientation="0,-1"
       id="guide917" />
    <sodipodi:guide
       position="-3065.4102,810.78098"
       orientation="1,0"
       id="guide1015" />
    <sodipodi:guide
       position="-3065.4101,798.14173"
       orientation="0,-1"
       id="guide1017" />
    <sodipodi:guide
       position="-2920.1278,799.70719"
       orientation="0.74056729,-0.67198221"
       id="guide9930" />
  </sodipodi:namedview>
  <defs
     id="defs3378">
    <linearGradient
       id="linearGradient16018"
       inkscape:swatch="gradient">
      <stop
         style="stop-color:#000000;stop-opacity:1;"
         offset="0"
         id="stop16014" />
      <stop
         style="stop-color:#000000;stop-opacity:0;"
         offset="1"
         id="stop16016" />
    </linearGradient>
    <marker
       style="overflow:visible;"
       id="Arrow1Lend"
       refX="0.0"
       refY="0.0"
       orient="auto"
       inkscape:stockid="Arrow1Lend"
       inkscape:isstock="true">
      <path
         transform="scale(0.8) rotate(180) translate(12.5,0)"
         style="fill-rule:evenodd;fill:context-stroke;stroke:context-stroke;stroke-width:1.0pt;"
         d="M 0.0,0.0 L 5.0,-5.0 L -12.5,0.0 L 5.0,5.0 L 0.0,0.0 z "
         id="path2014" />
    </marker>
    <rect
       x="155"
       y="934.79516"
       width="488"
       height="144.20484"
       id="rect89292" />
    <linearGradient
       id="linearGradient76672"
       inkscape:swatch="solid">
      <stop
         style="stop-color:#000000;stop-opacity:1;"
         offset="0"
         id="stop76670" />
    </linearGradient>
    <linearGradient
       id="linearGradient70540"
       inkscape:swatch="solid">
      <stop
         style="stop-color:#ffffff;stop-opacity:1;"
         offset="0"
         id="stop70538" />
    </linearGradient>
  </defs>
  <g
     inkscape:label="Layer 1"
     inkscape:groupmode="layer"
     id="layer1">
    <text
       xml:space="preserve"
       transform="scale(0.26458333)"
       id="text89290"
       style="fill:black;fill-opacity:1;line-height:1.25;stroke:none;font-family:sans-serif;font-style:normal;font-weight:normal;font-size:40px;white-space:pre;shape-inside:url(#rect89292)" />
    <g
       id="g74360"
       transform="translate(3365.1853,546.44497)">
      <g
         id="g74358"
         transform="matrix(0.8426763,0,0,0.77233103,-777.94933,-414.65545)">
        <g
           id="g74354"
           transform="matrix(1,0,0,0.91446917,-104.12355,13.070983)"
           style="fill:#ffffff;fill-opacity:1;stroke:#464646;stroke-width:2.5;stroke-linecap:butt;stroke-linejoin:bevel;stroke-miterlimit:4;stroke-dasharray:none;stroke-opacity:1;paint-order:stroke fill markers">
          <path
             style="color:#000000;fill:#ffffff;fill-opacity:1;stroke:#464646;stroke-width:2.5;stroke-linecap:butt;stroke-linejoin:round;stroke-miterlimit:4;stroke-dasharray:none;stroke-opacity:1;paint-order:stroke fill markers"
             d="m -2459.2388,-228.74458 -0.085,7.46244 c 2.6076,-0.21922 6.0599,-2.41322 8.7331,1.12939 l -0.9615,133.158012 c -1.4957,3.997379 -7.7559,2.102743 -7.7559,2.102743 l 0.01,7.765265 c 42.4454,-1.491885 71.2386,4.423813 72.0929,-69.53461 -0.614,-75.50591 -9.8289,-87.26458 -60.134,-82.72757 z"
             id="path74352"
             sodipodi:nodetypes="ccccccccc" />
        </g>
        <path
           style="color:#000000;fill:none;fill-opacity:1;fill-rule:nonzero;stroke:#484646;stroke-width:1.81596;stroke-linecap:square;stroke-linejoin:bevel;stroke-miterlimit:4;stroke-dasharray:none;stroke-opacity:1;paint-order:stroke fill markers"
           d="m -2546.467,-74.759644 -0.1206,-106.201806 c 23.8839,-13.8226 45.7268,-11.41157 46.3142,54.9467 1.5573,52.973785 -24.7275,65.973911 -46.1936,51.255106 z"
           id="path74356"
           sodipodi:nodetypes="cccc" />
      </g>
    </g>
    <path
       style="fill:#ffffff;fill-opacity:1;fill-rule:nonzero;stroke:#4b4b4b;stroke-width:2.71478;stroke-linecap:butt;stroke-linejoin:round;stroke-miterlimit:4;stroke-dasharray:none;stroke-opacity:1;paint-order:stroke fill markers"
       d="m 535.19361,212.2223 c 0,0 18.0882,-17.28753 30.3552,-41.20409 19.3658,-41.26383 3.5205,-82.478264 3.5205,-82.478264 l -18.8276,0.16323 c 0,0 5.5117,1.27112 8.8802,7.44173 28.4963,45.265924 -29.2511,112.347914 -29.2511,112.347914"
       id="path74575" />
    <path
       style="fill:#ffffff;fill-opacity:1;fill-rule:nonzero;stroke:#4b4b4b;stroke-width:2.71478;stroke-linecap:butt;stroke-linejoin:round;stroke-miterlimit:4;stroke-dasharray:none;stroke-opacity:1;paint-order:stroke fill markers"
       d="m 508.89301,96.506016 c -3.3685,-6.17061 -10.1024,-5.77166 -10.1024,-5.77166 h 20.0498 c 0,0 15.7252,31.275854 -3.5205,80.644964 -20.6926,44.65625 -52.9957,63.16307 -88.5089,97.02317 0,0 -12.7428,14.00789 -6.5609,17.71085 17.8973,1.59278 11.7451,-66.34738 8.5827,-86.14347 -1.3236,-2.56503 -4.2882,-3.38804 -4.2882,-3.38804 l 10.8247,-0.27667 c 0,0 2.2439,24.76677 1.9868,68.93435 0,0 -0.7719,15.04565 -3.7156,22.39022 -5.6839,13.31816 -23.8586,6.07409 -21.1074,-4.51281 1.1099,-11.62058 34.6059,-38.79774 63.9413,-72.37077 29.6723,-33.95866 52.2456,-74.68939 32.4186,-114.240134 z"
       sodipodi:nodetypes="ccccccccccccsc"
       id="path75152" />
    <g
       id="g20639"
       transform="translate(32.279181)">
      <g
         id="g20627" />
    </g>
    <g
       id="g32766"
       inkscape:export-filename="D:\danielcr\SitiosWebWix\Vetrodilusso\Logo-100dpiNoCompress.png"
       inkscape:export-xdpi="100.07"
       inkscape:export-ydpi="100.07"
       transform="matrix(1.0496954,0,0,0.9902558,3149.4911,652.66395)">
      <g
         id="g33327">
        <rect
           style="fill:#000000;fill-opacity:1;fill-rule:nonzero;stroke:none;stroke-width:1.78978;stroke-linecap:butt;stroke-linejoin:miter;stroke-miterlimit:4;stroke-dasharray:none;stroke-opacity:1;paint-order:fill markers stroke"
           id="rect123"
           width="200"
           height="300"
           x="-3000"
           y="-659.466" />
        <g
           id="g33308">
          <g
             id="g32667">
            <text
               xml:space="preserve"
               style="font-style:normal;font-variant:normal;font-weight:normal;font-stretch:normal;font-size:39.696px;line-height:1.25;font-family:Allice;-inkscape-font-specification:'Allice, Normal';font-variant-ligatures:normal;font-variant-caps:normal;font-variant-numeric:normal;font-variant-east-asian:normal;fill:#ffffff;fill-opacity:1;stroke:#000000;stroke-width:1.01614202;stroke-miterlimit:4;stroke-dasharray:none;paint-order:stroke fill markers"
               x="-3776.28"
               y="-296.82904"
               id="text151"
               transform="scale(0.79112829,1.2640175)"><tspan
                 sodipodi:role="line"
                 id="tspan147"
                 style="font-style:normal;font-variant:normal;font-weight:normal;font-stretch:normal;font-size:27.4033px;font-family:'Modern No. 20';-inkscape-font-specification:'Modern No. 20, Normal';font-variant-ligatures:normal;font-variant-caps:normal;font-variant-numeric:normal;font-variant-east-asian:normal;fill:#ffffff;fill-opacity:1;stroke:#4b4b4b;stroke-width:1.01614202;stroke-linecap:square;stroke-linejoin:miter;stroke-miterlimit:4;stroke-dasharray:none;stroke-opacity:1;paint-order:stroke fill markers"
                 x="-3776.28"
                 y="-296.82904">VETRO DI LUSSO </tspan><tspan
                 sodipodi:role="line"
                 id="tspan149"
                 style="font-style:normal;font-variant:normal;font-weight:normal;font-stretch:normal;font-size:39.696px;font-family:serif;-inkscape-font-specification:'serif, Normal';font-variant-ligatures:normal;font-variant-caps:normal;font-variant-numeric:normal;font-variant-east-asian:normal;fill:#ffffff;fill-opacity:1;stroke-width:1.01614202;stroke-miterlimit:4;stroke-dasharray:none;paint-order:stroke fill markers"
                 x="-3776.28"
                 y="-247.20905" /></text>
            <path
               style="fill:#ffffff;fill-opacity:1;fill-rule:nonzero;stroke:#4b4b4b;stroke-width:2.30767;stroke-linecap:butt;stroke-linejoin:round;stroke-miterlimit:4;stroke-dasharray:none;stroke-opacity:1;paint-order:stroke fill markers"
               d="m -2937.7726,-627.85898 -3.412,5.42507 -0.032,178.64715 60.4269,-8e-4 c 6.2726,-9e-5 9.412,-13.92431 9.412,-13.92431 l -0.1342,27.54532 -7.2787,-4.08056 -77.5007,-1.3e-4 c -5.6795,-1e-5 4.0134,-0.2497 4.8268,-10.05656 l 3e-4,-121.28861 0.01,-56.4357 -6.6727,-5.83084 z"
               id="path135"
               sodipodi:nodetypes="cccscccsccccc"
               transform="translate(32.27918)" />
            <g
               id="g32348"
               transform="translate(32.27918,2.6458333)">
              <g
                 id="g73933"
                 transform="translate(-0.52916667)">
                <g
                   id="g26418"
                   transform="matrix(0.8426763,0,0,0.77233103,-777.94933,-414.65545)">
                  <g
                     id="g14730"
                     transform="matrix(1,0,0,0.91446917,-104.12355,13.070983)"
                     style="fill:#ffffff;fill-opacity:1;stroke:#464646;stroke-width:2.5;stroke-linecap:butt;stroke-linejoin:bevel;stroke-miterlimit:4;stroke-dasharray:none;stroke-opacity:1;paint-order:stroke fill markers">
                    <path
                       style="color:#000000;fill:#ffffff;fill-opacity:1;stroke:#464646;stroke-width:2.5;stroke-linecap:butt;stroke-linejoin:round;stroke-miterlimit:4;stroke-dasharray:none;stroke-opacity:1;paint-order:stroke fill markers"
                       d="m -2459.8668,-228.74458 -0.085,7.46244 c 2.6076,-0.21922 6.0599,-2.41322 8.7331,1.12939 l -0.9615,133.158012 c -1.4957,3.997379 -7.7559,2.102743 -7.7559,2.102743 l 0.01,7.765265 c 42.4454,-1.491885 71.2386,4.423813 72.0929,-69.53461 -0.614,-75.50591 -9.8289,-87.26458 -60.134,-82.72757 z"
                       id="path125"
                       sodipodi:nodetypes="ccccccccc" />
                  </g>
                  <path
                     style="color:#000000;fill:#000000;fill-opacity:1;fill-rule:nonzero;stroke:#484646;stroke-width:1.81596;stroke-linecap:square;stroke-linejoin:bevel;stroke-miterlimit:4;stroke-dasharray:none;stroke-opacity:1;paint-order:stroke fill markers"
                     d="m -2546.467,-74.759644 -0.1206,-106.201806 c 23.8839,-13.8226 45.7268,-11.41157 46.3142,54.9467 1.5573,52.973785 -24.7275,65.973911 -46.1936,51.255106 z"
                     id="path12235"
                     sodipodi:nodetypes="cccc" />
                </g>
              </g>
            </g>
            <path
               style="fill:#ffffff;fill-opacity:1;fill-rule:nonzero;stroke:#4b4b4b;stroke-width:2.71478;stroke-linecap:butt;stroke-linejoin:round;stroke-miterlimit:4;stroke-dasharray:none;stroke-opacity:1;paint-order:stroke fill markers"
               d="m -2921.7147,-503.18452 c 0,0 14.4771,-14.7452 27.4471,-48.33397 16.72,-42.15937 -0.5481,-83.84825 -0.5481,-83.84825 l -18.8278,0.16322 c 0,0 6.5701,1.27111 9.9385,7.44172 21.0615,53.26761 -17.497,110.60451 -17.497,110.60451 z"
               id="path5499"
               sodipodi:nodetypes="ccccccc"
               transform="translate(32.27918)" />
            <path
               style="fill:#ffffff;fill-opacity:1;fill-rule:nonzero;stroke:#4b4b4b;stroke-width:2.71478;stroke-linecap:butt;stroke-linejoin:round;stroke-miterlimit:4;stroke-dasharray:none;stroke-opacity:1;paint-order:stroke fill markers"
               d="m -2987.7514,-526.3959 c -1.4306,-2.50698 -4.4272,-3.20436 -4.4272,-3.20436 l 12.113,-0.74579 c 0,0 6.186,38.59422 6.7143,69.80916 0,0 0.5141,17.89504 -1.3648,22.88679 -5.5909,14.05675 -23.5449,14.97177 -25.2839,3.43862 -2.6932,-11.43867 36.479,-47.26089 44.7264,-61.22406 l -0.1909,11.89528 c -17.9957,18.615 -41.4232,39.86511 -36.0676,47.62627 19.9962,4.14771 7.7743,-70.83662 3.7807,-90.48191 z"
               id="path5497"
               sodipodi:nodetypes="cccccccccc"
               transform="translate(32.27918)" />
            <path
               id="rect13646"
               style="fill:#ffffff;stroke:#4b4b4b;stroke-width:1.816;stroke-linecap:round;stroke-linejoin:miter;stroke-miterlimit:4;stroke-dasharray:none;paint-order:stroke fill markers"
               d="m -2937.1042,-506.28745 1.9145,-2.36933 -0.1539,13.57008 -1.9541,2.45957 z"
               sodipodi:nodetypes="ccccc"
               transform="translate(32.27918)" />
            <rect
               style="fill:#ffffff;fill-opacity:0.60241;stroke:#4b4b4b;stroke-width:2.15313;stroke-linecap:round;stroke-linejoin:round;stroke-miterlimit:4;stroke-dasharray:none;stroke-opacity:0.698795;paint-order:stroke fill markers"
               id="rect28377"
               width="189.68138"
               height="2.8220189"
               x="-2994.8086"
               y="-412.52463" />
          </g>
        </g>
      </g>
      <g
         id="g33427"
         transform="translate(-487.64047,-7.2700765)">
        <g
           id="g56204"
           transform="translate(67.393743,41.328358)"
           style="stroke:#f8ffff;stroke-width:1.96166;stroke-miterlimit:4;stroke-dasharray:none;stroke-opacity:1;paint-order:stroke fill markers"
           inkscape:export-filename="D:\danielcr\SitiosWebWix\Vetrodilusso\LogoBco-ImprintFont.png"
           inkscape:export-xdpi="21.777748"
           inkscape:export-ydpi="21.777748">
          <g
             id="g57220">
            <g
               id="g56140">
              <rect
                 style="fill:#ffffff;fill-opacity:1;fill-rule:nonzero;stroke:none;stroke-width:1.78978;stroke-linecap:butt;stroke-linejoin:miter;stroke-miterlimit:4;stroke-dasharray:none;stroke-opacity:1;paint-order:fill markers stroke"
                 id="rect33393"
                 width="200"
                 height="300"
                 x="-3000"
                 y="-659.466"
                 transform="translate(5.6408467e-6)" />
              <g
                 id="g56124">
                <path
                   style="fill:#000000;fill-opacity:1;fill-rule:nonzero;stroke:#f8ffff;stroke-width:1.96166;stroke-linecap:butt;stroke-linejoin:round;stroke-miterlimit:4;stroke-dasharray:none;stroke-opacity:1;paint-order:stroke fill markers"
                   d="m -2905.4934,-627.85898 -3.412,5.42507 -0.032,178.64715 60.4269,-8e-4 c 6.2726,-9e-5 9.412,-13.92431 9.412,-13.92431 l -0.1342,27.54532 -7.2787,-4.08056 -77.5007,-1.3e-4 c -5.6795,-1e-5 4.0134,-0.2497 4.8268,-10.05656 l 3e-4,-121.28861 0.01,-56.4357 -6.6727,-5.83084 z"
                   id="path33401"
                   sodipodi:nodetypes="cccscccsccccc" />
                <g
                   id="g33413"
                   transform="translate(32.389455,2.6458333)"
                   style="fill:#000000;fill-opacity:1;stroke:#f8ffff;stroke-width:1.96166;stroke-miterlimit:4;stroke-dasharray:none;stroke-opacity:1;paint-order:stroke fill markers">
                  <g
                     id="g33411"
                     transform="translate(-0.52916667)"
                     style="fill:#000000;fill-opacity:1;stroke:#f8ffff;stroke-width:1.96166;stroke-miterlimit:4;stroke-dasharray:none;stroke-opacity:1;paint-order:stroke fill markers">
                    <g
                       id="g33409"
                       transform="matrix(0.8426763,0,0,0.77233103,-777.94933,-414.65545)"
                       style="fill:#000000;fill-opacity:1;stroke:#f8ffff;stroke-width:2.4316;stroke-miterlimit:4;stroke-dasharray:none;stroke-opacity:1;paint-order:stroke fill markers">
                      <g
                         id="g33405"
                         transform="matrix(1,0,0,0.91446917,-104.12355,13.070983)"
                         style="fill:#000000;fill-opacity:1;stroke:#f8ffff;stroke-width:2.54278;stroke-linecap:butt;stroke-linejoin:bevel;stroke-miterlimit:4;stroke-dasharray:none;stroke-opacity:1;paint-order:stroke fill markers">
                        <path
                           style="color:#000000;fill:#000000;fill-opacity:1;stroke:#f8ffff;stroke-width:2.54278;stroke-linecap:butt;stroke-linejoin:round;stroke-miterlimit:4;stroke-dasharray:none;stroke-opacity:1;paint-order:stroke fill markers"
                           d="m -2459.8668,-228.74458 -0.085,7.46244 c 2.6076,-0.21922 6.0599,-2.41322 8.7331,1.12939 l -0.9615,133.158012 c -1.4957,3.997379 -7.7559,2.102743 -7.7559,2.102743 l 0.01,7.765265 c 42.4454,-1.491885 71.2386,4.423813 72.0929,-69.53461 -0.614,-75.50591 -9.8289,-87.26458 -60.134,-82.72757 z"
                           id="path33403"
                           sodipodi:nodetypes="ccccccccc" />
                      </g>
                      <path
                         style="color:#000000;fill:#ffffff;fill-opacity:1;fill-rule:nonzero;stroke:#f8ffff;stroke-width:2.4316;stroke-linecap:square;stroke-linejoin:bevel;stroke-miterlimit:4;stroke-dasharray:none;stroke-opacity:1;paint-order:stroke fill markers"
                         d="m -2546.467,-74.759644 -0.1206,-106.201806 c 23.8839,-13.8226 45.7268,-11.41157 46.3142,54.9467 1.5573,52.973785 -24.7275,65.973911 -46.1936,51.255106 z"
                         id="path33407"
                         sodipodi:nodetypes="cccc" />
                    </g>
                  </g>
                </g>
                <path
                   style="fill:#000000;fill-opacity:1;fill-rule:nonzero;stroke:#f8ffff;stroke-width:1.96166;stroke-linecap:butt;stroke-linejoin:round;stroke-miterlimit:4;stroke-dasharray:none;stroke-opacity:1;paint-order:stroke fill markers"
                   d="m -2891.4519,-503.18452 c 0,0 14.4771,-14.7452 27.4471,-48.33397 16.72,-42.15937 -0.5481,-83.84825 -0.5481,-83.84825 l -18.8278,0.16322 c 0,0 6.5701,1.27111 9.9385,7.44172 21.0615,53.26761 -17.497,110.60451 -17.497,110.60451 z"
                   id="path33415"
                   sodipodi:nodetypes="ccccccc" />
                <path
                   style="fill:#000000;fill-opacity:1;fill-rule:nonzero;stroke:#f8ffff;stroke-width:0.980832;stroke-linecap:round;stroke-linejoin:round;stroke-miterlimit:4;stroke-dasharray:none;stroke-opacity:1;paint-order:stroke fill markers"
                   d="m -2952.5579,-531.23237 c -1.4306,-2.50698 -4.4272,-3.20436 -4.4272,-3.20436 l 12.113,-0.74579 c 0,0 6.186,38.59422 6.7143,69.80916 0,0 0.5141,17.89504 -1.3648,22.88679 -5.5909,14.05675 -23.5449,14.97177 -25.2839,3.43862 -2.6932,-11.43867 36.479,-47.26089 44.7264,-61.22406 l -0.1909,11.89528 c -17.9957,18.615 -41.4232,39.86511 -36.0676,47.62627 19.9962,4.14771 7.7743,-70.83662 3.7807,-90.48191 z"
                   id="path33417"
                   sodipodi:nodetypes="cccccccccc" />
                <path
                   id="path33419"
                   style="fill:#000000;fill-opacity:1;stroke:#f8ffff;stroke-width:1.35797;stroke-linecap:round;stroke-linejoin:miter;stroke-miterlimit:4;stroke-dasharray:none;stroke-opacity:1;paint-order:stroke fill markers"
                   d="m -2904.6522,-508.4458 3.8202,-2.30934 -0.1784,12.96164 -3.8987,2.39649 z"
                   sodipodi:nodetypes="ccccc" />
                <rect
                   style="fill:#000000;fill-opacity:1;stroke:#f8ffff;stroke-width:1.96166;stroke-linecap:round;stroke-linejoin:round;stroke-miterlimit:4;stroke-dasharray:none;stroke-opacity:1;paint-order:stroke fill markers"
                   id="rect33421"
                   width="189.68138"
                   height="2.8220189"
                   x="-2994.8086"
                   y="-412.52463" />
              </g>
            </g>
            <text
               xml:space="preserve"
               style="font-style:normal;font-variant:normal;font-weight:normal;font-stretch:normal;font-size:25.4964px;line-height:1.25;font-family:'Modern No. 20';-inkscape-font-specification:'Modern No. 20, Normal';font-variant-ligatures:normal;font-variant-caps:normal;font-variant-numeric:normal;font-variant-east-asian:normal;white-space:pre;inline-size:265.717;fill:#000000;fill-opacity:1;fill-rule:evenodd;stroke:#000000;stroke-width:0.470483;stroke-linecap:butt;stroke-miterlimit:4;stroke-dasharray:none;stroke-opacity:0.702811;paint-order:stroke fill markers"
               x="-3650.3745"
               y="-298.17206"
               id="text33399"
               transform="matrix(0.69303385,0,0,1.1354143,-462.53511,-35.873715)"><tspan
                 x="-3650.3745"
                 y="-298.17206"
                 id="tspan57586"><tspan
                   style="font-family:'Imprint MT Shadow';-inkscape-font-specification:'Imprint MT Shadow';text-align:center;text-anchor:middle"
                   id="tspan57584">VETRO DI LUSSO</tspan></tspan></text>
          </g>
        </g>
        <g
           id="g56186"
           transform="translate(-54.583364,76.752666)"
           style="stroke:#f8ffff;stroke-width:1.96166;stroke-miterlimit:4;stroke-dasharray:none;stroke-opacity:1;paint-order:stroke fill markers"
           inkscape:export-filename="D:\danielcr\SitiosWebWix\Vetrodilusso\LogoBco-AlgerianFont.png"
           inkscape:export-xdpi="21.777748"
           inkscape:export-ydpi="21.777748">
          <g
             id="g56168"
             transform="translate(-231.14383,-35.424308)">
            <rect
               style="fill:#ffffff;fill-opacity:1;fill-rule:nonzero;stroke:none;stroke-width:1.78978;stroke-linecap:butt;stroke-linejoin:miter;stroke-miterlimit:4;stroke-dasharray:none;stroke-opacity:1;paint-order:fill markers stroke"
               id="rect56142"
               width="200"
               height="300"
               x="-3000"
               y="-659.466"
               transform="translate(5.6408467e-6)" />
            <g
               id="g56166">
              <path
                 style="fill:#000000;fill-opacity:1;fill-rule:nonzero;stroke:#f8ffff;stroke-width:1.96166;stroke-linecap:butt;stroke-linejoin:round;stroke-miterlimit:4;stroke-dasharray:none;stroke-opacity:1;paint-order:stroke fill markers"
                 d="m -2905.4934,-627.85898 -3.412,5.42507 -0.032,178.64715 60.4269,-8e-4 c 6.2726,-9e-5 9.412,-13.92431 9.412,-13.92431 l -0.1342,27.54532 -7.2787,-4.08056 -77.5007,-1.3e-4 c -5.6795,-1e-5 4.0134,-0.2497 4.8268,-10.05656 l 3e-4,-121.28861 0.01,-56.4357 -6.6727,-5.83084 z"
                 id="path56144"
                 sodipodi:nodetypes="cccscccsccccc" />
              <g
                 id="g56156"
                 transform="translate(32.389455,2.6458333)"
                 style="fill:#000000;fill-opacity:1;stroke:#f8ffff;stroke-width:1.96166;stroke-miterlimit:4;stroke-dasharray:none;stroke-opacity:1;paint-order:stroke fill markers">
                <g
                   id="g56154"
                   transform="translate(-0.52916667)"
                   style="fill:#000000;fill-opacity:1;stroke:#f8ffff;stroke-width:1.96166;stroke-miterlimit:4;stroke-dasharray:none;stroke-opacity:1;paint-order:stroke fill markers">
                  <g
                     id="g56152"
                     transform="matrix(0.8426763,0,0,0.77233103,-777.94933,-414.65545)"
                     style="fill:#000000;fill-opacity:1;stroke:#f8ffff;stroke-width:2.4316;stroke-miterlimit:4;stroke-dasharray:none;stroke-opacity:1;paint-order:stroke fill markers">
                    <g
                       id="g56148"
                       transform="matrix(1,0,0,0.91446917,-104.12355,13.070983)"
                       style="fill:#000000;fill-opacity:1;stroke:#f8ffff;stroke-width:2.54278;stroke-linecap:butt;stroke-linejoin:bevel;stroke-miterlimit:4;stroke-dasharray:none;stroke-opacity:1;paint-order:stroke fill markers">
                      <path
                         style="color:#000000;fill:#000000;fill-opacity:1;stroke:#f8ffff;stroke-width:2.54278;stroke-linecap:butt;stroke-linejoin:round;stroke-miterlimit:4;stroke-dasharray:none;stroke-opacity:1;paint-order:stroke fill markers"
                         d="m -2459.8668,-228.74458 -0.085,7.46244 c 2.6076,-0.21922 6.0599,-2.41322 8.7331,1.12939 l -0.9615,133.158012 c -1.4957,3.997379 -7.7559,2.102743 -7.7559,2.102743 l 0.01,7.765265 c 42.4454,-1.491885 71.2386,4.423813 72.0929,-69.53461 -0.614,-75.50591 -9.8289,-87.26458 -60.134,-82.72757 z"
                         id="path56146"
                         sodipodi:nodetypes="ccccccccc" />
                    </g>
                    <path
                       style="color:#000000;fill:#ffffff;fill-opacity:1;fill-rule:nonzero;stroke:#f8ffff;stroke-width:2.4316;stroke-linecap:square;stroke-linejoin:bevel;stroke-miterlimit:4;stroke-dasharray:none;stroke-opacity:1;paint-order:stroke fill markers"
                       d="m -2546.467,-74.759644 -0.1206,-106.201806 c 23.8839,-13.8226 45.7268,-11.41157 46.3142,54.9467 1.5573,52.973785 -24.7275,65.973911 -46.1936,51.255106 z"
                       id="path56150"
                       sodipodi:nodetypes="cccc" />
                  </g>
                </g>
              </g>
              <path
                 style="fill:#000000;fill-opacity:1;fill-rule:nonzero;stroke:#f8ffff;stroke-width:1.96166;stroke-linecap:butt;stroke-linejoin:round;stroke-miterlimit:4;stroke-dasharray:none;stroke-opacity:1;paint-order:stroke fill markers"
                 d="m -2891.4519,-503.18452 c 0,0 14.4771,-14.7452 27.4471,-48.33397 16.72,-42.15937 -0.5481,-83.84825 -0.5481,-83.84825 l -18.8278,0.16322 c 0,0 6.5701,1.27111 9.9385,7.44172 21.0615,53.26761 -17.497,110.60451 -17.497,110.60451 z"
                 id="path56158"
                 sodipodi:nodetypes="ccccccc" />
              <path
                 style="fill:#000000;fill-opacity:1;fill-rule:nonzero;stroke:#f8ffff;stroke-width:0.980832;stroke-linecap:round;stroke-linejoin:round;stroke-miterlimit:4;stroke-dasharray:none;stroke-opacity:1;paint-order:stroke fill markers"
                 d="m -2952.5579,-531.23237 c -1.4306,-2.50698 -4.4272,-3.20436 -4.4272,-3.20436 l 12.113,-0.74579 c 0,0 6.186,38.59422 6.7143,69.80916 0,0 0.5141,17.89504 -1.3648,22.88679 -5.5909,14.05675 -23.5449,14.97177 -25.2839,3.43862 -2.6932,-11.43867 36.479,-47.26089 44.7264,-61.22406 l -0.1909,11.89528 c -17.9957,18.615 -41.4232,39.86511 -36.0676,47.62627 19.9962,4.14771 7.7743,-70.83662 3.7807,-90.48191 z"
                 id="path56160"
                 sodipodi:nodetypes="cccccccccc" />
              <path
                 id="path56162"
                 style="fill:#000000;fill-opacity:1;stroke:#f8ffff;stroke-width:1.35797;stroke-linecap:round;stroke-linejoin:miter;stroke-miterlimit:4;stroke-dasharray:none;stroke-opacity:1;paint-order:stroke fill markers"
                 d="m -2904.6522,-508.4458 3.8202,-2.30934 -0.1784,12.96164 -3.8987,2.39649 z"
                 sodipodi:nodetypes="ccccc" />
              <rect
                 style="fill:#000000;fill-opacity:1;stroke:#f8ffff;stroke-width:1.96166;stroke-linecap:round;stroke-linejoin:round;stroke-miterlimit:4;stroke-dasharray:none;stroke-opacity:1;paint-order:stroke fill markers"
                 id="rect56164"
                 width="189.68138"
                 height="2.8220189"
                 x="-2994.8086"
                 y="-412.52463" />
            </g>
          </g>
          <text
             xml:space="preserve"
             style="font-style:normal;font-variant:normal;font-weight:normal;font-stretch:extra-condensed;font-size:25.4964px;line-height:1.25;font-family:Algerian;-inkscape-font-specification:'Algerian Extra-Condensed';font-variant-ligatures:normal;font-variant-caps:normal;font-variant-numeric:normal;font-variant-east-asian:normal;fill:#000000;fill-opacity:1;fill-rule:evenodd;stroke:#000000;stroke-width:0.470483;stroke-linecap:butt;stroke-miterlimit:4;stroke-dasharray:none;stroke-opacity:0.702811;paint-order:stroke fill markers"
             x="-3952.259"
             y="-322.96912"
             id="text45775"
             transform="scale(0.79245526,1.2619009)"><tspan
               sodipodi:role="line"
               id="tspan45773"
               style="font-style:normal;font-variant:normal;font-weight:normal;font-stretch:extra-condensed;font-size:25.4964px;font-family:Algerian;-inkscape-font-specification:'Algerian Extra-Condensed';font-variant-ligatures:normal;font-variant-caps:normal;font-variant-numeric:normal;font-variant-east-asian:normal;text-align:center;text-anchor:middle;fill:#000000;fill-opacity:1;fill-rule:evenodd;stroke:#000000;stroke-width:0.470483;stroke-linecap:butt;stroke-miterlimit:4;stroke-dasharray:none;stroke-opacity:0.702811;paint-order:stroke fill markers"
               x="-3952.259"
               y="-322.96912">VETRO DI Lusso</tspan></text>
        </g>
      </g>
    </g>
  </g>
</svg>
